<?xml version="1.0" encoding="UTF-8" standalone="no"?>
<svg width="25px" height="25px" viewBox="0 0 25 25" version="1.1" xmlns="http://www.w3.org/2000/svg" xmlns:xlink="http://www.w3.org/1999/xlink">
    <!-- Generator: sketchtool 3.8.3 (29802) - http://www.bohemiancoding.com/sketch -->
    <title>7D756277-282F-4E59-8AA2-D13DE131A905</title>
    <desc>Created with sketchtool.</desc>
    <defs></defs>
    <g id="Artboards" stroke="none" stroke-width="1" fill="none" fill-rule="evenodd">
        <g id="7_наведение" transform="translate(-1294.000000, -1040.000000)">
            <g id="social_VK_active" transform="translate(1294.000000, 1040.000000)">
                <rect id="Rectangle-145-Copy-3" fill="#000000" x="0" y="0" width="25" height="25"></rect>
                <path d="M11.8283422,17.067811 L12.7846789,17.067811 C12.7846789,17.067811 13.0734843,17.0360547 13.2211548,16.877498 C13.3568809,16.7318125 13.3525426,16.4584273 13.3525426,16.4584273 C13.3525426,16.4584273 13.3338373,15.1783395 13.9293082,14.9897689 C14.5165532,14.8040086 15.2704558,16.2270279 16.0694877,16.7741917 C16.6737478,17.1882039 17.1329291,17.0975439 17.1329291,17.0975439 L19.2696718,17.067811 C19.2696718,17.067811 20.3873699,16.9989588 19.8573676,16.1223164 C19.8139848,16.050654 19.5486174,15.4738135 18.2686001,14.2885449 C16.928692,13.0479135 17.108308,13.2486808 18.7222037,11.1027982 C19.7050771,9.79595637 20.0979448,8.99817076 19.9751772,8.65643929 C19.8581563,8.33089509 19.1352415,8.41689002 19.1352415,8.41689002 L16.7294693,8.43178457 C16.7294693,8.43178457 16.5509801,8.40750365 16.4188035,8.48647284 C16.2895003,8.56358725 16.2065096,8.74389556 16.2065096,8.74389556 C16.2065096,8.74389556 15.8255863,9.75515093 15.3179515,10.6152688 C14.2466785,12.4298742 13.8182595,12.5259299 13.6431509,12.4131248 C13.2356908,12.150475 13.3375558,11.3581975 13.3375558,10.7951275 C13.3375558,9.03644693 13.6049515,8.30324182 12.8168498,8.11343472 C12.55537,8.05042798 12.3627392,8.00877946 11.6939119,8.00203476 C10.83544,7.99326665 10.109032,8.00462023 9.69762807,8.2056685 C9.42392218,8.33943838 9.21275511,8.6372731 9.34143857,8.65447208 C9.50048997,8.67560548 9.86051069,8.75142715 10.0513949,9.01053604 C10.2980006,9.34524178 10.2893804,10.0966014 10.2893804,10.0966014 C10.2893804,10.0966014 10.4310787,12.1667747 9.95848815,12.4239163 C9.63430049,12.6002903 9.18942982,12.2401795 8.23427627,10.5937982 C7.74506502,9.75054205 7.37552264,8.81825588 7.37552264,8.81825588 C7.37552264,8.81825588 7.30436361,8.644074 7.17725771,8.55077232 C7.02310799,8.4378548 6.80771532,8.40199547 6.80771532,8.40199547 L4.52149927,8.41689002 C4.52149927,8.41689002 4.17838093,8.42650122 4.05228917,8.57533427 C3.9401137,8.70786762 4.04333091,8.98170245 4.04333091,8.98170245 C4.04333091,8.98170245 5.83306769,13.1590325 7.85977585,15.2641096 C9.71830532,17.1944989 11.8283422,17.067811 11.8283422,17.067811" id="Fill-4-Copy" fill="#FFFFFF"></path>
            </g>
        </g>
    </g>
</svg>