<?xml version="1.0" encoding="UTF-8" standalone="no"?>
<svg width="25px" height="25px" viewBox="0 0 25 25" version="1.1" xmlns="http://www.w3.org/2000/svg" xmlns:xlink="http://www.w3.org/1999/xlink">
    <!-- Generator: sketchtool 3.8.3 (29802) - http://www.bohemiancoding.com/sketch -->
    <title>A5E4547C-5EA3-4A06-B3F4-7194BB989F67</title>
    <desc>Created with sketchtool.</desc>
    <defs>
        <rect id="path-1" x="0" y="0" width="25" height="25"></rect>
        <mask id="mask-2" maskContentUnits="userSpaceOnUse" maskUnits="objectBoundingBox" x="0" y="0" width="25" height="25" fill="white">
            <use xlink:href="#path-1"></use>
        </mask>
    </defs>
    <g id="Artboards" stroke="none" stroke-width="1" fill="none" fill-rule="evenodd">
        <g id="7_наведение" transform="translate(-1364.000000, -1010.000000)">
            <g id="social_FB_sleep" transform="translate(1364.000000, 1010.000000)">
                <use id="Rectangle-145-Copy-2" stroke="#000000" mask="url(#mask-2)" stroke-width="4" xlink:href="#path-1"></use>
                <path d="M17.3196507,21 L17.3196507,12.9990633 L19.6863599,12.9990633 L20,10.2418961 L17.3196507,10.2418961 L17.3236717,8.86190745 C17.3236717,8.14279578 17.3968879,7.75747934 18.5036755,7.75747934 L19.9832457,7.75747934 L19.9832457,5 L17.6162014,5 C14.7730005,5 13.7722675,6.33752269 13.7722675,8.58681522 L13.7722675,10.2422084 L12,10.2422084 L12,12.9993755 L13.7722675,12.9993755 L13.7722675,21 L17.3196507,21 L17.3196507,21 L17.3196507,21 L17.3196507,21 Z" id="Path" fill="#000000" fill-rule="evenodd"></path>
            </g>
        </g>
    </g>
</svg>