<?xml version="1.0" encoding="UTF-8" standalone="no"?>
<svg width="25px" height="25px" viewBox="0 0 25 25" version="1.1" xmlns="http://www.w3.org/2000/svg" xmlns:xlink="http://www.w3.org/1999/xlink">
    <!-- Generator: sketchtool 3.8.3 (29802) - http://www.bohemiancoding.com/sketch -->
    <title>A8C285D3-BAF7-4D01-99F6-1FDDCEDDECF4</title>
    <desc>Created with sketchtool.</desc>
    <defs></defs>
    <g id="Artboards" stroke="none" stroke-width="1" fill="none" fill-rule="evenodd">
        <g id="7_наведение" transform="translate(-1329.000000, -1040.000000)">
            <g id="social_TWEET_active" transform="translate(1329.000000, 1040.000000)">
                <rect id="Rectangle-145-Copy-4" fill="#000000" x="0" y="0" width="25" height="25"></rect>
                <path d="M13.2833559,9.44611192 L13.3158709,10.0064326 L12.7739545,9.93782188 C10.801379,9.67481422 9.07808496,8.78287525 7.61491076,7.28487525 L6.89958115,6.54159277 L6.71532962,7.09047826 C6.32514982,8.31403557 6.57443133,9.60620354 7.38730588,10.4752722 C7.82083897,10.9555471 7.72329404,11.0241578 6.97544946,10.7382799 C6.71532962,10.6467989 6.48772473,10.5781883 6.46604806,10.6124936 C6.39017979,10.6925394 6.65029964,11.7331348 6.85622785,12.144799 C7.13802437,12.7165548 7.7124557,13.2768754 8.34107867,13.6084937 L8.8721567,13.8715013 L8.24353373,13.8829364 C7.63658739,13.8829364 7.61491076,13.8943716 7.67994074,14.134509 C7.89670729,14.8777914 8.75293514,15.6668144 9.70670792,16.0098678 L10.3786842,16.2500052 L9.79341452,16.6159289 C8.92634833,17.1419441 7.90754557,17.4392572 6.88874281,17.4621274 C6.40101808,17.4735625 6,17.5193029 6,17.5536083 C6,17.6679594 7.32227591,18.3083259 8.09179716,18.5598984 C10.4003609,19.3031809 13.1424577,18.9829976 15.2017399,17.7136999 C16.664914,16.8103258 18.1280882,15.0150128 18.8109028,13.2768754 C19.179406,12.3506311 19.5479091,10.6582341 19.5479091,9.84634093 C19.5479091,9.32032566 19.5804241,9.25171498 20.1873704,8.62278368 C20.5450352,8.25685998 20.8810234,7.85663097 20.9460533,7.74227979 C21.0544366,7.52501263 21.0435983,7.52501263 20.4908436,7.71940957 C19.5695858,8.06246304 19.4395258,8.01672259 19.8947356,7.50214241 C20.2307237,7.13621871 20.6317418,6.47298209 20.6317418,6.2785851 C20.6317418,6.24427979 20.4691669,6.30145538 20.2849154,6.40437137 C20.0898254,6.51872254 19.6562924,6.69024925 19.3311425,6.79316529 L18.7458729,6.98756222 L18.2147948,6.61020344 C17.92216,6.40437137 17.5103036,6.17566912 17.293537,6.10705839 C16.7407823,5.94696682 15.8953928,5.96983705 15.3968297,6.15279884 C14.0420388,6.66737903 13.185811,7.99385237 13.2833559,9.44611192 C13.2833559,9.44611192 13.185811,7.99385237 13.2833559,9.44611192 L13.2833559,9.44611192 L13.2833559,9.44611192 Z" id="Path-Copy" fill="#FFFFFF"></path>
            </g>
        </g>
    </g>
</svg>