<?xml version="1.0" encoding="UTF-8" standalone="no"?>
<svg width="46px" height="45px" viewBox="0 0 46 45" version="1.1" xmlns="http://www.w3.org/2000/svg" xmlns:xlink="http://www.w3.org/1999/xlink">
    <!-- Generator: sketchtool 3.8.3 (29802) - http://www.bohemiancoding.com/sketch -->
    <title>0CF126E9-4DB6-4453-9B3A-FBC52873913B</title>
    <desc>Created with sketchtool.</desc>
    <defs>
        <rect id="path-1" x="0" y="15" width="35" height="30" rx="2"></rect>
        <mask id="mask-2" maskContentUnits="userSpaceOnUse" maskUnits="objectBoundingBox" x="0" y="0" width="35" height="30" fill="white">
            <use xlink:href="#path-1"></use>
        </mask>
        <path d="M31,25.0058587 C31,23.8980535 31.8712988,22.8257402 32.960988,22.6078024 L44.039012,20.3921976 C45.1220357,20.1755929 46,20.8982124 46,21.9907951 L46,38.0092049 C46,39.1086907 45.1287012,39.8257402 44.039012,39.6078024 L32.960988,37.3921976 C31.8779643,37.1755929 31,36.1029399 31,34.9941413 L31,25.0058587 Z" id="path-3"></path>
        <mask id="mask-4" maskContentUnits="userSpaceOnUse" maskUnits="objectBoundingBox" x="0" y="0" width="15" height="19.2930149" fill="white">
            <use xlink:href="#path-3"></use>
        </mask>
        <path d="M10.5,15 C14.6421356,15 18,11.6421356 18,7.5 C18,3.35786438 14.6421356,0 10.5,0 C6.35786438,0 3,3.35786438 3,7.5 C3,11.6421356 6.35786438,15 10.5,15 Z M25.5,15 C29.6421356,15 33,11.6421356 33,7.5 C33,3.35786438 29.6421356,0 25.5,0 C21.3578644,0 18,3.35786438 18,7.5 C18,11.6421356 21.3578644,15 25.5,15 Z" id="path-5"></path>
        <mask id="mask-6" maskContentUnits="userSpaceOnUse" maskUnits="objectBoundingBox" x="0" y="0" width="30" height="15" fill="white">
            <use xlink:href="#path-5"></use>
        </mask>
    </defs>
    <g id="Artboards" stroke="none" stroke-width="1" fill="none" fill-rule="evenodd">
        <g id="7_наведение" transform="translate(-1195.000000, -1017.000000)">
            <g id="просмотр_видео" transform="translate(1195.000000, 1017.000000)">
                <use id="Rectangle-804" stroke="#c3636f" mask="url(#mask-2)" stroke-width="8" xlink:href="#path-1"></use>
                <use id="Rectangle-805" stroke="#c3636f" mask="url(#mask-4)" stroke-width="8" xlink:href="#path-3"></use>
                <use id="Combined-Shape" stroke="#c3636f" mask="url(#mask-6)" stroke-width="8" xlink:href="#path-5"></use>
                <rect id="Rectangle-806" fill="#c3636f" fill-rule="evenodd" x="8" y="33" width="20" height="4"></rect>
            </g>
        </g>
    </g>
</svg>
